<?xml version="1.0" encoding="utf-8"?>
<!-- Generator: Adobe Illustrator 22.0.1, SVG Export Plug-In . SVG Version: 6.00 Build 0)  -->
<svg version="1.1" id="Layer_1" xmlns="http://www.w3.org/2000/svg" xmlns:xlink="http://www.w3.org/1999/xlink" x="0px" y="0px"
	 viewBox="0 0 62.4 62.4" style="enable-background:new 0 0 62.4 62.4;" xml:space="preserve">
<style type="text/css">
	.st0{fill:#666666;}
	.st1{fill:#E5E5E5;}
</style>
<title>selected cow</title>
<g id="Layer_2_1_">
	<g id="UI">
		<circle class="st0" cx="31.2" cy="31.2" r="31.2"/>
		<g>
			<path class="st1" d="M31.9,38.6h-5.1c0.3-1.8,0.8-3.3,1.7-4.6c0.8-1.3,2.5-3,5-5.2c2.1-1.9,3.4-3.1,3.7-3.7
				c0.4-0.6,0.6-1.2,0.6-1.7c0-0.8-0.3-1.5-1-2s-1.6-0.8-3-0.8c-1.5,0-2.7,0.4-3.6,1.2c-0.9,0.8-1.6,2.1-2,3.9L23,24.7
				c0.7-2.6,2-4.6,3.9-6.1s4.3-2.2,7-2.2c2.9,0,5.1,0.7,6.7,2.1c1.6,1.4,2.4,3.1,2.4,5.1c0,1.2-0.3,2.3-1,3.5
				c-0.7,1.2-2.6,3-5.6,5.5c-1.9,1.6-3.1,2.7-3.6,3.4S32.1,37.5,31.9,38.6z M26.2,40.3h5.6l-1.1,5.5H25L26.2,40.3z"/>
		</g>
	</g>
</g>
</svg>
