<svg xmlns="http://www.w3.org/2000/svg" viewBox="0 0 52.85 52.85"><defs><style>.cls-1,.cls-4{fill:#666;}.cls-1{fill-rule:evenodd;}.cls-2{fill:#fff;}.cls-3{fill:#e5e5e5;}</style></defs><title>fcow</title><g id="Layer_2" data-name="Layer 2"><g id="UI"><path class="cls-1" d="M52.82,25.19A26.43,26.43,0,0,1,.53,31.76,27.77,27.77,0,0,1,0,27.68a25.12,25.12,0,0,1,0-3,26.42,26.42,0,0,1,52.75.53Z"/><g id="DypRah"><path class="cls-2" d="M40.29,14.26l-.2-4.14L42.57,10,43,18.66l-8.65.41L34.2,16.6l4.51-.21a12.39,12.39,0,1,0-9.78,19.07,12,12,0,0,0,8.55-4.07,12.23,12.23,0,0,0,3.2-8.92l2.46-.05A14.86,14.86,0,1,1,19.52,11.08a14.45,14.45,0,0,1,11-2.69A14.72,14.72,0,0,1,40.29,14.26Z"/></g><path class="cls-3" d="M23,45.75l-.22,0a1,1,0,0,1-.65-.48l-1.23-2.16a15.27,15.27,0,0,1-3,.88,12.78,12.78,0,0,1-2.38.24,10.4,10.4,0,0,1-1.39-.09,1,1,0,0,1-.87-1l0-2.77a2.59,2.59,0,0,1,.26-1.13,2.43,2.43,0,0,1,.8-1,2.78,2.78,0,0,1,1.2-.47c.33,0,.69-.09,1.09-.12s.73-.07,1.14-.12L15.7,34c-.54.18-1.1.34-1.66.48a8.73,8.73,0,0,1-2.19.28l-.54,0A6.7,6.7,0,0,1,8.57,34a7.51,7.51,0,0,1-2.5-2.35,7.4,7.4,0,0,1-1.19-2.73,7.84,7.84,0,0,1,0-3.08A9.07,9.07,0,0,1,6.07,22.7,10.34,10.34,0,0,1,8,20.45l-.49-.87a2.33,2.33,0,0,1,.7-3.06l1.53-1.08a1,1,0,0,1,.58-.18l.22,0a1,1,0,0,1,.65.48l1.16,2a9.83,9.83,0,0,1,2.58-.62q.68-.06,1.3-.06a11.26,11.26,0,0,1,1.6.11,1,1,0,0,1,.86,1l0,2.21a3.09,3.09,0,0,1-.19,1.19,2.2,2.2,0,0,1-.8,1,2.68,2.68,0,0,1-.86.38l-.83.19-.57.12,1.85,3.25.83-.25a14.9,14.9,0,0,1,1.71-.39,10,10,0,0,1,1.63-.14h.13a6.19,6.19,0,0,1,1.82.3,5.9,5.9,0,0,1,1.71.89,7,7,0,0,1,1.5,1.59,9.14,9.14,0,0,1,1.41,3,8.2,8.2,0,0,1,.16,3.27A9,9,0,0,1,27,38a10.59,10.59,0,0,1-1.88,2.31l.61,1.07a2.32,2.32,0,0,1-.7,3.07l-1.53,1.08A1,1,0,0,1,23,45.75ZM21.88,34.62a1.79,1.79,0,0,0-.39-1.52.94.94,0,0,0-.66-.46h-.08ZM11.22,26.15a1.5,1.5,0,0,0-.1.32.94.94,0,0,0,0,.41,1.24,1.24,0,0,0,.19.42,1.06,1.06,0,0,0,.75.51h.1Z"/><path class="cls-4" d="M10.3,16.26l1.6,2.8a9.45,9.45,0,0,1,3.1-.88q.63-.06,1.21-.06a10.29,10.29,0,0,1,1.46.1l0,2.21a2.15,2.15,0,0,1-.12.82,1.21,1.21,0,0,1-.45.55,1.73,1.73,0,0,1-.55.24l-.77.18-.9.19a9.11,9.11,0,0,0-1,.28l2.89,5.09q.77-.27,1.57-.5a13.75,13.75,0,0,1,1.6-.37,9,9,0,0,1,1.47-.12h.11a5.16,5.16,0,0,1,1.52.25,4.89,4.89,0,0,1,1.42.74,6,6,0,0,1,1.28,1.36,8.11,8.11,0,0,1,1.26,2.69,7.17,7.17,0,0,1,.14,2.87,7.92,7.92,0,0,1-1,2.84,10.08,10.08,0,0,1-2.29,2.61l1,1.77a1.32,1.32,0,0,1-.41,1.75L23,44.75,21.27,41.8A14.28,14.28,0,0,1,17.7,43a11.72,11.72,0,0,1-2.19.22,9.31,9.31,0,0,1-1.25-.08l0-2.77a1.59,1.59,0,0,1,.17-.69,1.44,1.44,0,0,1,.47-.57,1.79,1.79,0,0,1,.77-.3q.45-.07,1-.11t1.21-.13a6.45,6.45,0,0,0,1.37-.35l-3.07-5.4q-1.15.41-2.37.73a7.69,7.69,0,0,1-1.94.25l-.47,0A5.69,5.69,0,0,1,9,33.08a6.5,6.5,0,0,1-2.16-2,6.37,6.37,0,0,1-1-2.37,6.81,6.81,0,0,1,0-2.69,8,8,0,0,1,1.1-2.75,9.83,9.83,0,0,1,2.34-2.54l-.9-1.59a1.33,1.33,0,0,1,.41-1.75l1.53-1.08m2.26,12.58a5.77,5.77,0,0,0,1.26-.15l-2.46-4.34a5,5,0,0,0-.84,1,2.85,2.85,0,0,0-.37.92,1.94,1.94,0,0,0,0,.84,2.25,2.25,0,0,0,.35.75,2.07,2.07,0,0,0,1.41.92,4.22,4.22,0,0,0,.63,0m9.25,7.67q2-1.92.5-4A1.94,1.94,0,0,0,21,31.64a3.75,3.75,0,0,0-.48,0,5.52,5.52,0,0,0-1.35.19l2.68,4.71M10.3,14.26a2,2,0,0,0-1.15.37L7.61,15.7a3.33,3.33,0,0,0-1,4.39l.1.17a10.88,10.88,0,0,0-1.51,1.91,10.07,10.07,0,0,0-1.36,3.44,8.83,8.83,0,0,0,0,3.48,8.39,8.39,0,0,0,1.35,3.1,8.49,8.49,0,0,0,2.85,2.66,7.7,7.7,0,0,0,3.16.93l.6,0a9.72,9.72,0,0,0,2.44-.32l.93-.26.86,1.52-.75.09a3.78,3.78,0,0,0-1.63.64,3.42,3.42,0,0,0-1.13,1.34,3.58,3.58,0,0,0-.36,1.55l0,2.79a2,2,0,0,0,1.73,2,11.37,11.37,0,0,0,1.52.1A13.78,13.78,0,0,0,18.08,45a16.21,16.21,0,0,0,2.33-.63l.81,1.42a2,2,0,0,0,2.89.64l1.53-1.08a3.32,3.32,0,0,0,1-4.42l-.21-.36a11.17,11.17,0,0,0,1.5-2A9.94,9.94,0,0,0,29.19,35,9.2,9.2,0,0,0,29,31.33,10.14,10.14,0,0,0,27.44,28a8,8,0,0,0-1.72-1.81,6.9,6.9,0,0,0-2-1,7.19,7.19,0,0,0-2.11-.35h-.14a11,11,0,0,0-1.79.15,15.83,15.83,0,0,0-1.83.42l-.07,0L17,24l.12,0a3.66,3.66,0,0,0,1.18-.53A3.23,3.23,0,0,0,19.44,22a4.07,4.07,0,0,0,.26-1.58l0-2.2a2,2,0,0,0-1.72-2,12.34,12.34,0,0,0-1.74-.12c-.45,0-.91,0-1.39.06a10.24,10.24,0,0,0-2,.4L12,15.27a2,2,0,0,0-1.74-1Z"/><polygon class="cls-2" points="31.79 27.41 27.04 23.7 27.04 12.92 29.54 12.92 29.54 22.48 33.33 25.44 31.79 27.41"/></g></g></svg>