<svg xmlns="http://www.w3.org/2000/svg" viewBox="0 0 62.38 62.38"><defs><style>.cls-1{fill:#666;}.cls-2,.cls-4{fill:#fff;}.cls-2{fill-rule:evenodd;}.cls-3{fill:#7aed82;}</style></defs><title>selected_fcow</title><g id="Layer_2" data-name="Layer 2"><g id="UI"><circle class="cls-1" cx="31.19" cy="31.19" r="31.19"/><path class="cls-2" d="M57.59,30A26.43,26.43,0,0,1,5.3,36.52a27.77,27.77,0,0,1-.5-4.08,25.12,25.12,0,0,1,0-3A26.42,26.42,0,0,1,57.59,30Z"/><g id="DypRah"><path class="cls-1" d="M45.06,19l-.2-4.14,2.47-.12.41,8.65-8.65.41L39,21.36l4.51-.21A12.39,12.39,0,1,0,33.7,40.22a12,12,0,0,0,8.55-4.07,12.23,12.23,0,0,0,3.2-8.92l2.46-.05A14.86,14.86,0,1,1,24.29,15.85a14.45,14.45,0,0,1,11-2.69A14.72,14.72,0,0,1,45.06,19Z"/></g><path class="cls-3" d="M21.6,32.52q.77-.27,1.57-.5a13.75,13.75,0,0,1,1.6-.37,8.93,8.93,0,0,1,1.58-.12,5.16,5.16,0,0,1,1.52.25,4.89,4.89,0,0,1,1.42.74,6,6,0,0,1,1.28,1.36,8.11,8.11,0,0,1,1.26,2.69A7.17,7.17,0,0,1,32,39.46a7.92,7.92,0,0,1-1,2.84,10.08,10.08,0,0,1-2.29,2.61l1,1.77a1.32,1.32,0,0,1-.41,1.75l-1.53,1.08L26,46.57a14.28,14.28,0,0,1-3.57,1.19,10.7,10.7,0,0,1-3.45.14l0-2.77a1.59,1.59,0,0,1,.17-.69,1.44,1.44,0,0,1,.47-.57,1.79,1.79,0,0,1,.77-.3q.45-.07,1-.11t1.21-.13A6.45,6.45,0,0,0,24,43l-3.07-5.4q-1.15.41-2.37.73a7.6,7.6,0,0,1-2.41.24,5.69,5.69,0,0,1-2.35-.69,6.5,6.5,0,0,1-2.16-2,6.37,6.37,0,0,1-1-2.37,6.81,6.81,0,0,1,0-2.69A8,8,0,0,1,11.69,28,9.83,9.83,0,0,1,14,25.44l-.9-1.59a1.33,1.33,0,0,1,.41-1.75L15.06,21l1.6,2.8a9.45,9.45,0,0,1,3.1-.88,11.64,11.64,0,0,1,2.67,0l0,2.21a2.15,2.15,0,0,1-.12.82,1.21,1.21,0,0,1-.45.55,1.73,1.73,0,0,1-.55.24l-.77.18-.9.19a9.11,9.11,0,0,0-1,.28Zm-5.48-3.41a5,5,0,0,0-.84,1,2.85,2.85,0,0,0-.37.92,1.94,1.94,0,0,0,0,.84,2.25,2.25,0,0,0,.35.75,2.07,2.07,0,0,0,1.41.92,5.14,5.14,0,0,0,1.89-.1ZM26.57,41.27q2-1.92.5-4a1.94,1.94,0,0,0-1.35-.88,4.93,4.93,0,0,0-1.83.16Z"/><path class="cls-4" d="M15.06,21l1.6,2.8a9.45,9.45,0,0,1,3.1-.88q.63-.06,1.21-.06a10.29,10.29,0,0,1,1.46.1l0,2.21a2.15,2.15,0,0,1-.12.82,1.21,1.21,0,0,1-.45.55,1.74,1.74,0,0,1-.55.24l-.77.18-.9.19a9.12,9.12,0,0,0-1,.28l2.89,5.09q.77-.27,1.57-.5a13.72,13.72,0,0,1,1.6-.37,9,9,0,0,1,1.47-.12h.11a5.17,5.17,0,0,1,1.52.25,4.88,4.88,0,0,1,1.42.74,6,6,0,0,1,1.28,1.36,8.11,8.11,0,0,1,1.26,2.69A7.17,7.17,0,0,1,32,39.46a7.92,7.92,0,0,1-1,2.84,10.07,10.07,0,0,1-2.29,2.61l1,1.77a1.32,1.32,0,0,1-.41,1.75l-1.53,1.08L26,46.57a14.28,14.28,0,0,1-3.57,1.19,11.72,11.72,0,0,1-2.19.22A9.31,9.31,0,0,1,19,47.89l0-2.77a1.59,1.59,0,0,1,.17-.69,1.44,1.44,0,0,1,.47-.57,1.79,1.79,0,0,1,.77-.3q.45-.07,1-.11t1.21-.13A6.45,6.45,0,0,0,24,43l-3.07-5.4q-1.15.41-2.37.73a7.69,7.69,0,0,1-1.94.25l-.47,0a5.69,5.69,0,0,1-2.35-.69,6.5,6.5,0,0,1-2.16-2,6.37,6.37,0,0,1-1-2.37,6.81,6.81,0,0,1,0-2.69A8,8,0,0,1,11.69,28,9.83,9.83,0,0,1,14,25.44l-.9-1.59a1.33,1.33,0,0,1,.41-1.75L15.06,21M17.32,33.6a5.78,5.78,0,0,0,1.26-.15l-2.46-4.34a5,5,0,0,0-.84,1,2.85,2.85,0,0,0-.37.92,1.94,1.94,0,0,0,0,.84,2.25,2.25,0,0,0,.35.75,2.07,2.07,0,0,0,1.41.92,4.21,4.21,0,0,0,.63,0m9.25,7.67q2-1.92.5-4a1.94,1.94,0,0,0-1.35-.88,3.75,3.75,0,0,0-.48,0,5.52,5.52,0,0,0-1.35.19l2.68,4.71M15.06,19a2,2,0,0,0-1.15.37l-1.53,1.08a3.33,3.33,0,0,0-1,4.39l.1.17A10.89,10.89,0,0,0,10,26.94a10.07,10.07,0,0,0-1.36,3.44,8.83,8.83,0,0,0,0,3.48A8.39,8.39,0,0,0,10,37a8.48,8.48,0,0,0,2.85,2.66,7.7,7.7,0,0,0,3.16.93l.6,0a9.72,9.72,0,0,0,2.44-.32L20,40l.87,1.52-.75.09a3.78,3.78,0,0,0-1.63.64,3.42,3.42,0,0,0-1.13,1.34A3.58,3.58,0,0,0,17,45.12l0,2.79a2,2,0,0,0,1.73,2,11.37,11.37,0,0,0,1.52.1,13.77,13.77,0,0,0,2.57-.25,16.22,16.22,0,0,0,2.33-.63L26,50.51a2,2,0,0,0,2.89.64l1.53-1.08a3.32,3.32,0,0,0,1-4.42l-.21-.36a11.16,11.16,0,0,0,1.5-2A9.94,9.94,0,0,0,34,39.76a9.2,9.2,0,0,0-.18-3.66,10.14,10.14,0,0,0-1.56-3.35,8,8,0,0,0-1.72-1.81,6.9,6.9,0,0,0-2-1,7.19,7.19,0,0,0-2.11-.35h-.14a11,11,0,0,0-1.79.15,15.78,15.78,0,0,0-1.83.42l-.07,0-.78-1.38.12,0a3.66,3.66,0,0,0,1.18-.53,3.23,3.23,0,0,0,1.15-1.45,4.07,4.07,0,0,0,.26-1.58l0-2.2a2,2,0,0,0-1.72-2A12.35,12.35,0,0,0,21,20.89c-.45,0-.91,0-1.39.06a10.24,10.24,0,0,0-2,.4L16.8,20a2,2,0,0,0-1.74-1Z"/><polygon class="cls-1" points="36.68 32.17 31.93 28.46 31.93 17.69 34.43 17.69 34.43 27.24 38.22 30.21 36.68 32.17"/></g></g></svg>