<svg xmlns="http://www.w3.org/2000/svg" viewBox="0 0 62.38 62.38"><defs><style>.cls-1{fill:#666;}.cls-2{fill:#fff;}.cls-3{fill:#82d9ff;}.cls-4{fill:#004d6e;}</style></defs><title>selected sratio</title><g id="Layer_2" data-name="Layer 2"><g id="UI"><circle class="cls-1" cx="31.19" cy="31.19" r="31.19"/><circle class="cls-2" cx="31.19" cy="31.19" r="26.43"/><path class="cls-3" d="M30.06,22.74A1.09,1.09,0,0,0,29,21.65h-.77l.5-.5a1.09,1.09,0,1,0-1.55-1.55l-2,2h-2l4.14-4.14A1.09,1.09,0,0,0,25.71,16L21.57,20.1v-2l2-2a1.09,1.09,0,1,0-1.55-1.55l-.5.5v-.77a1.09,1.09,0,0,0-2.19,0V15l-.5-.5a1.09,1.09,0,1,0-1.55,1.55l2,2v2L15.24,16a1.09,1.09,0,1,0-1.55,1.55l4.14,4.14h-2l-2-2a1.09,1.09,0,1,0-1.55,1.55l.5.5H12a1.09,1.09,0,0,0,0,2.19h.77l-.5.5a1.09,1.09,0,1,0,1.55,1.55l2-2h2L13.7,28a1.09,1.09,0,1,0,1.55,1.55l4.14-4.14v2l-2,2A1.09,1.09,0,1,0,18.88,31l.5-.5v.77a1.09,1.09,0,0,0,2.19,0v-.77l.5.5a1.09,1.09,0,1,0,1.55-1.55l-2-2v-2l4.14,4.14A1.09,1.09,0,0,0,27.25,28l-4.14-4.14h2l2,2a1.09,1.09,0,0,0,1.55-1.55l-.5-.5H29A1.09,1.09,0,0,0,30.06,22.74Z"/><path class="cls-1" d="M20.52,43.36a1.5,1.5,0,0,1-1.06-2.56L40.8,19.46a1.5,1.5,0,0,1,2.12,2.12L21.58,42.93A1.5,1.5,0,0,1,20.52,43.36Z"/><path class="cls-4" d="M45.87,43A6.45,6.45,0,0,1,33,43c0-3.56,6.45-13.52,6.45-13.52S45.87,39.4,45.87,43Z"/></g></g></svg>