<svg xmlns="http://www.w3.org/2000/svg" viewBox="0 0 62.38 62.38"><defs><style>.cls-1{fill:#666;}.cls-2{fill:#fff;}.cls-3{fill:#7aed82;}</style></defs><title>selected cow</title><g id="Layer_2" data-name="Layer 2"><g id="UI"><circle class="cls-1" cx="31.19" cy="31.19" r="31.19"/><circle class="cls-2" cx="31.19" cy="31.19" r="26.43"/><path class="cls-3" d="M32.4,29.07q.79.23,1.57.5a13.75,13.75,0,0,1,1.52.62,8.93,8.93,0,0,1,1.36.81A5.16,5.16,0,0,1,38,32.09a4.89,4.89,0,0,1,.73,1.43,6,6,0,0,1,.26,1.85,8.11,8.11,0,0,1-.52,2.93,7.17,7.17,0,0,1-1.54,2.43,7.92,7.92,0,0,1-2.49,1.72,10.08,10.08,0,0,1-3.38.81l-.2,2a1.32,1.32,0,0,1-1.34,1.2H27.6l.33-3.38A14.28,14.28,0,0,1,24.33,42a10.7,10.7,0,0,1-2.89-1.88L23,37.86a1.59,1.59,0,0,1,.53-.47,1.44,1.44,0,0,1,.71-.19,1.79,1.79,0,0,1,.8.2q.41.21.89.49t1.07.59a6.45,6.45,0,0,0,1.32.5l.61-6.18q-1.18-.33-2.35-.77a7.6,7.6,0,0,1-2.11-1.2A5.69,5.69,0,0,1,23,28.92,6.5,6.5,0,0,1,22.39,26a6.37,6.37,0,0,1,.52-2.53,6.81,6.81,0,0,1,1.53-2.21,8,8,0,0,1,2.48-1.61,9.83,9.83,0,0,1,3.38-.73l.18-1.82a1.33,1.33,0,0,1,1.34-1.2H33.7l-.31,3.21a9.45,9.45,0,0,1,3,1.07,11.64,11.64,0,0,1,2.16,1.57l-1.25,1.82a2.15,2.15,0,0,1-.57.6,1.21,1.21,0,0,1-.68.19,1.73,1.73,0,0,1-.58-.12l-.73-.3-.84-.36a9.11,9.11,0,0,0-1-.34Zm-2.51-6a5,5,0,0,0-1.27.34,2.85,2.85,0,0,0-.84.54,1.94,1.94,0,0,0-.47.7,2.25,2.25,0,0,0-.15.81,2.07,2.07,0,0,0,.62,1.57,5.14,5.14,0,0,0,1.61,1Zm1.52,16q2.7-.44,2.71-3a1.94,1.94,0,0,0-.6-1.5,4.93,4.93,0,0,0-1.58-.93Z"/></g></g></svg>