<svg xmlns="http://www.w3.org/2000/svg" viewBox="0 0 52.85 52.85"><defs><style>.cls-1{fill:#666;}.cls-2{fill:#e5e5e5;}.cls-3{fill:#fff;}</style></defs><title>sratio</title><g id="Layer_2" data-name="Layer 2"><g id="UI"><circle class="cls-1" cx="26.43" cy="26.43" r="26.43"/><path class="cls-2" d="M25.29,18a1.09,1.09,0,0,0-1.09-1.09h-.77l.5-.5a1.09,1.09,0,1,0-1.55-1.55l-2,2h-2l4.14-4.14a1.09,1.09,0,0,0-1.55-1.55L16.8,15.34v-2l2-2A1.09,1.09,0,1,0,17.3,9.76l-.5.5V9.48a1.09,1.09,0,1,0-2.19,0v.77l-.5-.5a1.09,1.09,0,1,0-1.55,1.55l2,2v2L10.48,11.2a1.09,1.09,0,1,0-1.55,1.55l4.14,4.14h-2l-2-2a1.09,1.09,0,0,0-1.55,1.55l.5.5H7.22a1.09,1.09,0,1,0,0,2.19H8l-.5.5A1.09,1.09,0,1,0,9,21.11l2-2h2L8.93,23.21a1.09,1.09,0,1,0,1.55,1.55l4.14-4.14v2l-2,2a1.09,1.09,0,1,0,1.55,1.55l.5-.5v.77a1.09,1.09,0,1,0,2.19,0V25.7l.5.5a1.09,1.09,0,1,0,1.55-1.55l-2-2v-2l4.14,4.14a1.09,1.09,0,0,0,1.55-1.55l-4.14-4.14h2l2,2a1.09,1.09,0,1,0,1.55-1.55l-.5-.5h.77A1.09,1.09,0,0,0,25.29,18Z"/><path class="cls-3" d="M15.75,38.6A1.5,1.5,0,0,1,14.69,36L36,14.69a1.5,1.5,0,1,1,2.12,2.12L16.81,38.16A1.5,1.5,0,0,1,15.75,38.6Z"/><path class="cls-2" d="M41.1,38.19a6.45,6.45,0,0,1-12.9,0c0-3.56,6.45-13.52,6.45-13.52S41.1,34.63,41.1,38.19Z"/></g></g></svg>