<svg xmlns="http://www.w3.org/2000/svg" viewBox="0 0 66.29 37.09"><defs><style>.cls-1{fill:#666;}</style></defs><title>states on</title><g id="Layer_2" data-name="Layer 2"><g id="UI"><path class="cls-1" d="M17.84,37.09a.5.5,0,0,1-.37-.16l-3.35-3.65a.49.49,0,0,1-.1-.16l-2-5.4L10.3,29.43a.43.43,0,0,1-.36.15.5.5,0,0,1-.36-.15L8.27,28a.5.5,0,0,1-.14-.35V26.28a.5.5,0,0,1,0-.14l.44-1.55-.32-1.14a.5.5,0,0,1,0-.29l1-3H7.08a.5.5,0,0,1-.48-.36L5.92,17.5,3.78,15.44l-2-1.18a.5.5,0,0,1-.2-.23l-.54-1.25a.5.5,0,0,1,.09-.54l.75-.81L.09,8.83A.5.5,0,0,1,0,8.55V.5A.5.5,0,0,1,.5,0h0L65.79,0a.5.5,0,0,1,.5.5V32.43a.5.5,0,0,1-.5.5H28.14v3.56a.5.5,0,0,1-.86.35L25.52,35l-3.37,1.89a.51.51,0,0,1-.23.06l-4.07.1Zm-2.91-4.41,3.13,3.41L21.77,36l3.6-2a.5.5,0,0,1,.6.09l1.17,1.2V32.43a.5.5,0,0,1,.5-.5H65.29V1L1,1V8.39l1.94,2.8a.5.5,0,0,1,0,.62l-.8.86.35.8,1.89,1.13.09.07,2.27,2.19a.5.5,0,0,1,.13.22l.61,2.09h2.5a.5.5,0,0,1,.48.66L9.27,23.33l.32,1.13a.5.5,0,0,1,0,.27l-.46,1.62V27.5l.82.86,1.91-1.92a.5.5,0,0,1,.82.18Z"/><path class="cls-1" d="M36.79,28.32c-10.4,0-18.56-10.63-18.9-11.08l-.68-.89.68-.89c.34-.45,8.5-11.08,18.9-11.08S55.35,15,55.69,15.44l.68.89-.68.89C55.35,17.69,47.19,28.32,36.79,28.32ZM21,16.34c2.11,2.44,8.49,9,15.79,9s13.68-6.57,15.79-9c-2.12-2.44-8.49-9-15.79-9S23.1,13.9,21,16.34Z"/><circle class="cls-1" cx="36.79" cy="16.34" r="6.31"/></g></g></svg>