<svg xmlns="http://www.w3.org/2000/svg" viewBox="0 0 66.29 37.09"><defs><style>.cls-1{fill:#666;}</style></defs><title>states off</title><g id="Layer_2" data-name="Layer 2"><g id="UI"><path class="cls-1" d="M66.29,1.55h-1V1h-.5V0h1a.5.5,0,0,1,.5.5Z"/><path class="cls-1" d="M66.29,29.44h-1v-2h1Zm0-4h-1v-2h1Zm0-4h-1v-2h1Zm0-4h-1v-2h1Zm0-4h-1v-2h1Zm0-4h-1v-2h1Zm0-4h-1v-2h1Z"/><path class="cls-1" d="M65.79,32.93h-1v-1h.5v-.5h1v1A.5.5,0,0,1,65.79,32.93Z"/><path class="cls-1" d="M62.89,32.93H61v-1h1.9Zm-3.8,0h-1.9v-1h1.9Zm-3.8,0h-1.9v-1h1.9Zm-3.8,0h-1.9v-1h1.9Zm-3.8,0h-1.9v-1h1.9Zm-3.8,0H42v-1h1.9Zm-3.8,0h-1.9v-1h1.9Zm-3.8,0h-1.9v-1h1.9Zm-3.8,0h-1.9v-1h1.9Z"/><path class="cls-1" d="M28.14,33.43h-1v-1a.5.5,0,0,1,.5-.5h1v1h-.5Z"/><path class="cls-1" d="M27.64,37a.51.51,0,0,1-.36-.15l-.7-.72.56-.54v-.09h.09l.07-.07.06.07h.78v1a.5.5,0,0,1-.31.46A.49.49,0,0,1,27.64,37Z"/><path class="cls-1" d="M26,35.47,25.52,35l-.54.3-.49-.87.87-.49a.5.5,0,0,1,.6.09l.7.72Z"/><path class="cls-1" d="M21,37l0-1,.84,0,.89-.5.49.87-1,.56a.51.51,0,0,1-.23.06Z"/><path class="cls-1" d="M17.84,37.09a.5.5,0,0,1-.37-.16l-.68-.74.74-.68.52.57.77,0,0,1-1,0Z"/><path class="cls-1" d="M15.51,34.79l-1.28-1.4.74-.68,1.28,1.4Zm-2.1-3.31-.67-1.78.94-.34.66,1.77Z"/><path class="cls-1" d="M12.09,27.91l-.07-.2-.15.15-.71-.71.71-.71a.5.5,0,0,1,.82.18l.34.94Z"/><path class="cls-1" d="M9.95,29.58a.55.55,0,0,1-.36-.15l-.69-.72L9.62,28l.34.35L10.3,28l.71.71-.71.71A.5.5,0,0,1,9.95,29.58Z"/><path class="cls-1" d="M9.13,27h-1v-.68a.54.54,0,0,1,0-.14l.26-.93,1,.27-.24.86ZM8.4,23.9l-.13-.45a.5.5,0,0,1,0-.29L8.64,22l.95.31-.32,1,.09.3Z"/><path class="cls-1" d="M10.11,20.79l-.95-.31.1-.29H8.95v-1h1a.5.5,0,0,1,.47.66Z"/><path class="cls-1" d="M8.08,20.19h-1a.5.5,0,0,1-.48-.36l-.28-1,1-.28.18.6h.63Z"/><path class="cls-1" d="M5.35,17,3.62,15.34l.51-.86.21.13.09.07L6,16.23Z"/><path class="cls-1" d="M1.45,13.7l-.4-.92a.5.5,0,0,1,.09-.54l.75-.81-.34-.49.82-.57.57.82a.5.5,0,0,1,0,.62l-.8.86.27.62Z"/><path class="cls-1" d="M.46,9.36.09,8.83A.5.5,0,0,1,0,8.55V7.27H1V8.39l.28.4Zm.54-4H0V3.42H1Z"/><path class="cls-1" d="M1,1.5H0V.5A.5.5,0,0,1,.5,0h1V1H1Z"/><path class="cls-1" d="M62.75,1h-2V0h2ZM58.66,1h-2V0h2ZM54.58,1h-2V0h2ZM50.5,1h-2V0h2ZM46.41,1h-2V0h2ZM42.33,1h-2V0h2ZM38.25,1h-2V0h2ZM34.17,1h-2V0h2ZM30.08,1H28V0h2ZM26,1H24V0h2ZM21.92,1h-2V0h2ZM17.83,1h-2V0h2ZM13.75,1h-2V0h2ZM9.67,1h-2V0h2ZM5.58,1h-2V0h2Z"/><path class="cls-1" d="M46.1,26.75A1.5,1.5,0,0,1,45,26.31L27.22,8.49a1.5,1.5,0,0,1,2.12-2.12L47.16,24.19a1.5,1.5,0,0,1-1.06,2.56Z"/><path class="cls-1" d="M28.28,26.75a1.5,1.5,0,0,1-1.06-2.56L45,6.37a1.5,1.5,0,1,1,2.12,2.12L29.34,26.31A1.5,1.5,0,0,1,28.28,26.75Z"/></g></g></svg>